<?xml version="1.0" encoding="utf-8"?>
<!-- Generator: Adobe Illustrator 27.4.1, SVG Export Plug-In . SVG Version: 6.00 Build 0)  -->
<svg version="1.1" id="레이어_1" xmlns="http://www.w3.org/2000/svg" xmlns:xlink="http://www.w3.org/1999/xlink" x="0px"
	 y="0px" viewBox="0 0 449 225" style="enable-background:new 0 0 449 225;" xml:space="preserve">
<style type="text/css">
	.st0{fill:#999999;}
</style>
<path class="st0" d="M432.1,63.8l-8.4,24.1l-9.2-24.1h-17.3l17.7,42.9l0,0.1c-1.9,3.7-5,4-8.9,4c-1.6,0-3.1-0.2-3.6-0.4l-0.8-0.2v14
	l0.4,0.1c1.6,0.5,3.7,0.8,6.6,0.8c10.5,0,18.6-6.4,23.4-18.6L449,63.8L432.1,63.8z M208,87.6h18.2V108h17.2V53.5h-17.2v20.3H208
	V53.5h-17.2V108H208V87.6z M322.9,76.6c4.8,0,8.1,3.8,8.1,9.2c0,5.4-3.3,9.2-8.1,9.2c-4.8,0-8.1-3.8-8.1-9.2
	C314.8,80.5,318.2,76.6,322.9,76.6 M347.5,85.9c0-13.5-8.7-22.9-21.2-22.9c-4.1,0-7.7,1.3-10.6,3.7v-2.9h-16.3v54.5h16.3v-13.2
	c2.9,2.4,6.4,3.6,10.6,3.6C338.8,108.8,347.5,99.4,347.5,85.9"/>
<path class="st0" d="M375.1,76.6c4.8,0,8.1,3.8,8.1,9.2c0,5.4-3.3,9.2-8.1,9.2c-4.8,0-8.1-3.8-8.1-9.2
	C367.1,80.5,370.4,76.6,375.1,76.6 M378.5,63c-4.1,0-7.7,1.3-10.6,3.7v-2.9h-16.3v54.5h16.3v-13.2c2.9,2.4,6.4,3.6,10.6,3.6
	c12.5,0,21.2-9.4,21.2-22.9C399.7,72.4,391,63,378.5,63 M271.2,95.1c-4.8,0-8.1-3.8-8.1-9.2c0-5.4,3.3-9.2,8.1-9.2
	c4.8,0,8.1,3.8,8.1,9.2C279.2,91.3,275.9,95.1,271.2,95.1 M267.8,108.8c4.2,0,7.7-1.2,10.6-3.6v2.8h16.3V63.8h-16.3v2.9
	c-2.9-2.4-6.5-3.7-10.6-3.7c-12.5,0-21.2,9.4-21.2,22.9C246.6,99.3,255.3,108.8,267.8,108.8 M273.8,166.7c0,5.6-3.2,9.3-8.1,9.3
	c-4.8,0-8.1-3.8-8.1-9.3s3.2-9.3,8.1-9.3C270.5,157.4,273.8,161.1,273.8,166.7 M265.7,143.4c-13.8,0-24.6,10.2-24.6,23.3
	c0,13.1,10.8,23.3,24.6,23.3c13.8,0,24.6-10.2,24.6-23.3C290.3,153.6,279.5,143.4,265.7,143.4 M293.8,188.8h16.3v-44.1h-16.3V188.8z
	 M301.9,123.2c-5.3,0-9.4,4.1-9.4,9.4c0,5.4,4.1,9.4,9.4,9.4c5.4,0,9.4-4.1,9.4-9.4C311.4,127.2,307.3,123.2,301.9,123.2
	 M342.9,143.8c-4.6,0-8.5,2.1-11,5.9l0.2-5h-16.4v44.1h16.3v-25c0-4.1,2.1-6.6,5.5-6.6c3.7,0,5.9,2.6,5.9,6.9v24.7h16.3v-26.9
	C359.9,151.2,352.9,143.8,342.9,143.8 M384.6,134.4h-16.2v10.3h-6.7v13h6.7v14c0,10.9,6.5,17.7,17.1,17.7c2.7,0,3.9-0.2,6.5-0.6
	l0.5-0.1v-13.9l-0.7,0.1c-0.5,0.1-1.4,0.2-2.8,0.2c-2.8,0-4.5-1.7-4.5-4.5v-12.8h8.4v-13h-8.4L384.6,134.4z M208,148.1h7
	c4,0,6.8,2.9,6.8,7c0,4.1-2.8,7-6.8,7h-7V148.1z M216.7,134.3h-25.8v54.5H208l0-12.9h8.7c12.8,0,22.5-8.9,22.5-20.8
	C239.2,143.2,229.5,134.3,216.7,134.3 M6.6,30.4c11.2,24.8,36.2,42.1,65.2,42.1s54-17.3,65.2-42.1L6.6,30.4z M92.9,0
	c0,11.8-9.6,21.4-21.4,21.4c-11.8,0-21.4-9.6-21.4-21.4H92.9z M71.9,167.9c-8.2,0-14.8-6.6-14.8-14.8c0-8.2,6.6-14.8,14.8-14.8
	s14.8,6.6,14.8,14.8C86.7,161.3,80.1,167.9,71.9,167.9 M71.9,81.2C32.2,81.2,0,113.4,0,153.1S32.2,225,71.9,225s71.9-32.2,71.9-71.9
	S111.6,81.2,71.9,81.2"/>
</svg>
