<?xml version="1.0" encoding="utf-8"?>
<!-- Generator: Adobe Illustrator 27.4.1, SVG Export Plug-In . SVG Version: 6.00 Build 0)  -->
<svg version="1.1" id="레이어_1" xmlns="http://www.w3.org/2000/svg" xmlns:xlink="http://www.w3.org/1999/xlink" x="0px"
	 y="0px" viewBox="0 0 257.8 133.3" style="enable-background:new 0 0 257.8 133.3;" xml:space="preserve">
<style type="text/css">
	.st0{fill:#777777;}
</style>
<g>
	<path class="st0" d="M17,33.1h18.5c0.5,0,0.9,0.4,0.9,0.9v19.3c0,0.5,0.4,0.9,0.9,0.9h14.5c0.5,0,0.9-0.4,0.9-0.9V0.9
		c0-0.5-0.4-0.9-0.9-0.9H37.2c-0.5,0-0.9,0.4-0.9,0.9v18.4c0,0.5-0.4,0.9-0.9,0.9H17c-0.5,0-0.9-0.4-0.9-0.9V0.9
		c0-0.5-0.4-0.9-0.9-0.9H0.9C0.4,0,0,0.4,0,0.9v52.4c0,0.5,0.4,0.9,0.9,0.9h14.5c0.5,0,0.9-0.4,0.9-0.9V34
		C16.2,33.5,16.6,33.1,17,33.1z"/>
	<path class="st0" d="M86.3,53.7c0.8-0.4,1.6-0.8,2.4-1.4c0.8-0.5,1.8-0.4,2.5,0.2c0.1,0.1,0.3,0.2,0.5,0.3c1.3,0.8,3,1.2,5.1,1.2h5
		c1.1,0,2-0.9,2-2V12.9c0-1.1-0.9-2-2-2H91c-1.1,0-2,0.9-2,2l0,0c-0.9-0.6-1.8-1.1-2.8-1.6c-2.5-1.1-5.4-1.7-8.7-1.7
		c-2.9,0-5.7,0.6-8.4,1.7c-2.6,1.1-5,2.7-7,4.7s-3.6,4.5-4.8,7.3s-1.8,6-1.8,9.4c0,3.4,0.6,6.5,1.8,9.4c1.2,2.8,2.8,5.3,4.8,7.3
		s4.4,3.6,7,4.7c2.6,1.1,5.5,1.7,8.4,1.7C80.8,55.5,83.7,54.9,86.3,53.7z M86.3,39.7c-0.9,0.9-1.9,1.6-3,2.1c-2.4,1-5.4,1-7.7,0
		c-1.2-0.5-2.2-1.2-3-2.1c-0.9-0.9-1.5-1.9-2-3.2c-0.5-1.2-0.7-2.5-0.7-4c0-1.4,0.2-2.8,0.7-4s1.2-2.3,2-3.1
		c0.9-0.9,1.9-1.6,3.1-2.1s2.5-0.8,3.9-0.8s2.6,0.3,3.8,0.8c1.2,0.5,2.2,1.2,3.1,2.1c0.8,0.9,1.5,1.9,2,3.1s0.7,2.6,0.7,4
		c0,1.5-0.2,2.8-0.7,4C87.8,37.7,87.1,38.8,86.3,39.7z"/>
	<path class="st0" d="M123.5,54.8c0-1.4,1.5-2.3,2.8-1.7l0,0c2.5,1.1,5.3,1.6,8.5,1.6c2.9,0,5.7-0.5,8.3-1.6s5-2.6,7-4.6
		s3.6-4.4,4.8-7.1c1.2-2.8,1.8-5.9,1.8-9.2s-0.6-6.4-1.8-9.2s-2.8-5.2-4.8-7.1c-2-2-4.3-3.5-7-4.6c-2.6-1.1-5.4-1.6-8.3-1.6
		c-3.2,0-6.1,0.6-8.6,1.7c-1,0.5-1.9,1-2.8,1.6l0,0c0-1.1-0.9-2-2-2H111c-1.1,0-2,0.9-2,2v49.7c0,1.1,0.9,2,2,2h10.5
		c1.1,0,2-0.9,2-2V54.8z M133,22.4c1.3,0,2.6,0.3,3.8,0.7c1.2,0.5,2.2,1.2,3,2s1.5,1.9,2,3.1s0.7,2.5,0.7,3.9s-0.2,2.8-0.7,3.9
		c-0.5,1.2-1.2,2.2-2,3.1c-0.8,0.9-1.9,1.6-3,2.1c-2.4,1-5.3,1-7.6,0c-1.2-0.5-2.2-1.2-3-2.1c-0.8-0.9-1.5-1.9-2-3.1
		c-0.5-1.2-0.7-2.5-0.7-3.9c0-1.4,0.2-2.7,0.7-3.9c0.5-1.2,1.1-2.2,2-3.1s1.9-1.5,3.1-2.1C130.4,22.6,131.7,22.4,133,22.4z"/>
	<path class="st0" d="M208.5,32.1c0-3.3-0.6-6.4-1.8-9.2s-2.8-5.2-4.8-7.1c-2-2-4.3-3.5-7-4.6c-2.6-1.1-5.4-1.6-8.3-1.6
		c-3.2,0-6.1,0.6-8.6,1.7c-1,0.5-1.9,1-2.8,1.6l0,0c0-1.1-0.9-2-2-2h-10.5c-1.1,0-2,0.9-2,2v49.7c0,1.1,0.9,2,2,2h10.5
		c1.1,0,2-0.9,2-2v-7.7c0-1.4,1.5-2.3,2.8-1.7l0,0c2.5,1.1,5.3,1.6,8.5,1.6c2.9,0,5.7-0.5,8.3-1.6s5-2.6,7-4.6s3.6-4.4,4.8-7.1
		C207.9,38.6,208.5,35.5,208.5,32.1z M184.9,22.4c1.3,0,2.6,0.3,3.8,0.7c1.2,0.5,2.2,1.2,3,2s1.5,1.9,2,3.1s0.7,2.5,0.7,3.9
		s-0.2,2.8-0.7,3.9c-0.5,1.2-1.2,2.2-2,3.1c-0.8,0.9-1.9,1.6-3,2.1c-2.4,1-5.3,1-7.6,0c-1.2-0.5-2.2-1.2-3-2.1
		c-0.8-0.9-1.5-1.9-2-3.1c-0.5-1.2-0.7-2.5-0.7-3.9c0-1.4,0.2-2.7,0.7-3.9c0.5-1.2,1.1-2.2,2-3.1s1.9-1.5,3.1-2.1
		C182.3,22.6,183.6,22.4,184.9,22.4z"/>
	<path class="st0" d="M241.7,10.1L233,32.9c-0.3,0.7-1.3,0.7-1.6,0l-8.9-22.8c-0.1-0.3-0.4-0.5-0.8-0.5h-14.3c-0.6,0-1,0.6-0.8,1.2
		l18.2,40.5c0.1,0.2,0.1,0.5,0,0.7c-0.3,0.6-0.6,1.2-0.9,1.8c-0.5,0.8-1.1,1.5-1.8,2c-0.7,0.6-1.7,1-2.8,1.3
		c-1.2,0.3-2.7,0.5-4.4,0.5c-0.4,0-1,0-1.6-0.1c-0.6,0-1.1-0.1-1.7-0.2l-1.2-0.2c-0.5-0.1-1,0.3-1,0.8v6.5c0,4.3,2.2,6.8,5.9,6.8
		h1.9c2.2,0,4.3-0.3,6.2-1s3.8-1.8,5.5-3.3s3.3-3.4,4.9-5.7c1.5-2.2,3.1-5,4.7-8.2l19.1-42.3c0.3-0.6-0.2-1.2-0.8-1.2h-14.4
		C242.1,9.5,241.8,9.8,241.7,10.1z"/>
</g>
<g>
	<path class="st0" d="M50.2,86.1c-2.7-2.4-5.8-4.2-9.4-5.5c-3.5-1.3-7.3-1.9-11.3-1.9s-7.8,0.7-11.3,1.9c-3.5,1.3-6.7,3.2-9.4,5.5
		c-2.7,2.4-4.8,5.3-6.4,8.7C0.8,98.2,0,101.9,0,106s0.8,7.8,2.3,11.2c1.6,3.3,3.7,6.3,6.4,8.7s5.8,4.2,9.4,5.5
		c3.5,1.3,7.3,1.9,11.3,1.9c3.9,0,7.7-0.7,11.3-1.9c3.6-1.3,6.7-3.2,9.4-5.6s4.8-5.3,6.4-8.6c1.6-3.4,2.4-7.1,2.4-11.2
		s-0.8-7.8-2.4-11.2C55,91.4,52.8,88.5,50.2,86.1z M43.6,106c0,2-0.4,3.9-1.1,5.6c-0.7,1.7-1.7,3.2-3,4.4c-1.3,1.2-2.8,2.2-4.5,2.9
		c-1.7,0.7-3.6,1.1-5.6,1.1s-3.9-0.4-5.6-1.1s-3.2-1.7-4.5-2.9c-1.3-1.3-2.3-2.8-3-4.5c-0.7-1.7-1.1-3.6-1.1-5.6s0.4-3.9,1.1-5.6
		s1.8-3.2,3-4.5c1.3-1.2,2.8-2.2,4.5-2.9c1.7-0.7,3.6-1.1,5.6-1.1s3.9,0.4,5.6,1.1s3.2,1.7,4.5,2.9c1.3,1.3,2.3,2.8,3,4.4
		C43.2,102.1,43.6,104,43.6,106z"/>
	<path class="st0" d="M79.4,91.7c-0.2,0.1-0.4,0.2-0.6,0.4c-0.7,0.4-1.5-0.1-1.5-0.9l0,0c0-0.6-0.5-1-1-1H62.7
		c-0.5,0-0.9,0.4-0.9,0.9v41.5c0,0.5,0.4,0.9,0.9,0.9h13.6c0.5,0,0.9-0.4,0.9-0.9v-20.4c0-3,0.8-5.2,2.5-6.9
		c1.7-1.6,3.9-2.4,6.7-2.4h6.9c0.5,0,0.9-0.4,0.9-0.9V90.6c0-0.5-0.4-0.9-0.9-0.9h-6.5C84.6,89.7,81.8,90.4,79.4,91.7z"/>
	<path class="st0" d="M213.8,91.7c-0.2,0.1-0.4,0.2-0.6,0.4c-0.7,0.4-1.5-0.1-1.5-0.9l0,0c0-0.6-0.5-1-1-1h-13.4
		c-0.5,0-0.9,0.4-0.9,0.9v41.5c0,0.5,0.4,0.9,0.9,0.9h13.6c0.5,0,0.9-0.4,0.9-0.9v-20.4c0-3,0.8-5.2,2.5-6.9
		c1.7-1.6,3.9-2.4,6.7-2.4h6.9c0.5,0,0.9-0.4,0.9-0.9V90.6c0-0.5-0.4-0.9-0.9-0.9h-6.5C219.1,89.7,216.2,90.4,213.8,91.7z"/>
	<path class="st0" d="M128.1,87.4c0,1.4-1.5,2.3-2.7,1.7l0,0c-2.5-1.1-5.4-1.7-8.6-1.7c-2.9,0-5.7,0.6-8.3,1.7c-2.6,1.1-5,2.7-7,4.7
		s-3.6,4.5-4.8,7.3c-1.2,2.8-1.8,6-1.8,9.4s0.6,6.5,1.8,9.4c1.2,2.8,2.8,5.3,4.8,7.3c2,2,4.3,3.6,7,4.7c2.6,1.1,5.4,1.7,8.3,1.7
		c1.6,0,3.2-0.2,4.8-0.5c1.5-0.4,2.9-0.8,4.1-1.4c0.8-0.4,1.5-0.8,2.1-1.2c0.8,0.1,1.5,0.1,2.3,0.2l0,0c1.2,1,2.8,1.5,4.8,1.5h5.9
		c1.1,0,1.9-0.9,1.9-1.9V79.9c0-1.1-0.9-1.9-1.9-1.9H130c-1.1,0-1.9,0.9-1.9,1.9V87.4z M125.4,103.2c0.8,0.9,1.5,1.9,2,3.1
		s0.7,2.6,0.7,4c0,1.5-0.2,2.8-0.7,4s-1.2,2.3-2,3.2c-0.9,0.9-1.8,1.6-3,2.1c-2.4,1-5.3,1-7.6,0c-1.2-0.5-2.2-1.2-3-2.1
		s-1.5-1.9-2-3.1s-0.7-2.5-0.7-4c0-1.4,0.2-2.8,0.7-4s1.1-2.3,2-3.1c0.8-0.9,1.9-1.6,3-2.1c1.2-0.5,2.5-0.8,3.8-0.8s2.6,0.3,3.8,0.8
		C123.5,101.7,124.5,102.4,125.4,103.2z"/>
	<path class="st0" d="M186,94.9c-2.1-2-4.6-3.5-7.4-4.5c-2.8-1.1-5.9-1.6-9.1-1.6c-3.2,0-6.3,0.5-9.1,1.6s-5.3,2.6-7.4,4.5
		c-2.1,2-3.8,4.3-5,7.1c-1.2,2.7-1.8,5.8-1.8,9.1c0,3.4,0.6,6.4,1.9,9.2c1.2,2.7,2.9,5.1,5,7s4.6,3.5,7.4,4.5
		c2.8,1.1,5.9,1.6,9.1,1.6c2,0,4.1-0.2,6-0.7c2-0.5,3.8-1.1,5.5-1.9c1.7-0.8,3.3-1.8,4.8-3s2.8-2.6,3.8-4.1l0.3-0.4
		c0.3-0.5,0.3-1.1-0.1-1.6l-1-1.1l-0.1-0.1c-0.5-0.8-1.1-1.5-1.7-2.1c-0.5-0.5-1.2-0.9-1.8-1.3c-1.4-0.7-3-0.8-5.2,0
		c-0.9,0.4-1.9,0.9-2.8,1.6c-1,0.7-2.2,1.3-3.5,1.7c-1.3,0.4-2.7,0.6-4.3,0.6c-2.3,0-4.2-0.6-5.8-1.9c-0.3-0.2-0.6-0.5-0.9-0.8
		c-0.8-0.8-0.2-2.1,0.9-2.1h27.9c0.7,0,1.3-0.6,1.3-1.3V111c0-3.3-0.6-6.4-1.8-9.1C189.8,99.2,188.1,96.8,186,94.9z M164.6,105.1
		c-1.2,0-1.7-1.5-0.8-2.2c0,0,0.1,0,0.1-0.1c1.6-1.2,3.4-1.7,5.6-1.7c2.3,0,4.1,0.6,5.7,1.8l0,0c0.9,0.7,0.4,2.2-0.8,2.2
		C174.4,105.1,164.6,105.1,164.6,105.1z"/>
</g>
</svg>
