<?xml version="1.0" encoding="utf-8"?>
<!-- Generator: Adobe Illustrator 27.4.1, SVG Export Plug-In . SVG Version: 6.00 Build 0)  -->
<svg version="1.1" id="레이어_1" xmlns="http://www.w3.org/2000/svg" xmlns:xlink="http://www.w3.org/1999/xlink" x="0px"
	 y="0px" viewBox="0 0 449 174.2" style="enable-background:new 0 0 449 174.2;" xml:space="preserve">
<style type="text/css">
	.st0{fill:#00A61C;}
</style>
<g>
	<path class="st0" d="M78,87.7c-13.7,0-27.4,0.1-41,0c-10.5-0.1-19.2-4.4-26.2-12c-4-4.3-6.3-9.8-8.1-15.3
		c-3.4-10.6-3.6-21.4-0.4-32C4,22.5,6.6,17,10.7,12.5C16.2,6.6,22.4,2.2,30.7,1.2c5.3-0.7,10.6-0.9,16-0.9c23.5,0,46.8-0.1,70.3,0
		c8.1,0.1,15.9,1.9,22.5,6.9c5.3,4,9.5,9,11.8,15.5c2.6,7.3,4.3,14.8,4,22.6c-0.2,6.8-1.6,13.4-4.1,19.7
		c-4.5,11.5-12.9,18.8-24.7,22.1c-2.7,0.8-5.7,0.8-8.6,0.8C104.6,87.8,91.2,87.7,78,87.7z M77.7,53.1L77.7,53.1
		c8.7,0,17.4,0.1,26.1-0.1c1.9,0,4.1-0.4,5.7-1.4c3.4-2,4.7-6.9,3.3-11c-1-3-3.7-6.1-8.6-6c-9,0.2-17.9,0.1-26.9,0.1
		c-8.7,0-17.4,0-26.1,0c-2.1,0-4.2,0-6,1.5c-3.1,2.8-4.3,7.1-2.9,10.7c1.7,4.6,4.1,6.2,9.2,6.2C60.3,53.1,69,53.1,77.7,53.1z"/>
	<path class="st0" d="M72.4,174.2c-21.8,0-37.7,0.2-58.9-0.1c-1,0-2.6-0.2-3.5-0.3c-5.7-0.7-9.1-4.5-9.2-10.3
		c-0.1-6.7-0.1-13.4,0-20c0.1-6.4,5-10.8,10.9-10.6c11,0.2,22,0.1,32.8,0.1c1.9,0,3.9,0.1,5.5-1.4c1.6-1.5,2.5-3.1,2.4-5.3
		c0-5,0-10,0-15c0-1.1,0-2.1,0.1-3.2c0.4-3.8,2.6-5.9,6.5-5.9c12.1,0,24.2,0,36.3,0c5.1,0,8.5,2.9,8.4,8.6
		c-0.1,5.3,0.3,10.5,0.2,15.8c0,4.6,2.3,6.4,6.4,6.4c10.9-0.1,21.8,0,32.6,0c2.5,0,4.8,0.2,7,1.8c2.7,1.9,4.1,4.5,4.1,7.6
		c0,8.1,0,16.1-0.4,24.2c-0.2,4.6-3.4,7.2-8.2,7.6c-0.8,0.1-4.3,0.1-5.1,0.1C118.7,174.1,94.1,174.2,72.4,174.2
		C72.4,174.2,72.4,174.3,72.4,174.2z"/>
</g>
<g>
	<path class="st0" d="M208.3,53.9h18.5c0.5,0,0.9,0.4,0.9,0.9v19.3c0,0.5,0.4,0.9,0.9,0.9h14.5c0.5,0,0.9-0.4,0.9-0.9V21.6
		c0-0.5-0.4-0.9-0.9-0.9h-14.5c-0.5,0-0.9,0.4-0.9,0.9v18.4c0,0.5-0.4,0.9-0.9,0.9h-18.5c-0.5,0-0.9-0.4-0.9-0.9V21.6
		c0-0.5-0.4-0.9-0.9-0.9h-14.5c-0.5,0-0.9,0.4-0.9,0.9v52.4c0,0.5,0.4,0.9,0.9,0.9h14.5c0.5,0,0.9-0.4,0.9-0.9V54.8
		C207.4,54.3,207.8,53.9,208.3,53.9z"/>
	<path class="st0" d="M277.5,74.5c0.8-0.4,1.6-0.8,2.4-1.4c0.8-0.5,1.8-0.4,2.5,0.2c0.1,0.1,0.3,0.2,0.5,0.3c1.3,0.8,3,1.2,5.1,1.2
		h5c1.1,0,2-0.9,2-2V33.7c0-1.1-0.9-2-2-2h-10.7c-1.1,0-2,0.9-2,2v0c-0.9-0.6-1.8-1.1-2.8-1.6c-2.5-1.1-5.4-1.7-8.7-1.7
		c-2.9,0-5.7,0.6-8.4,1.7c-2.6,1.1-5,2.7-7,4.7c-2,2-3.6,4.5-4.8,7.3c-1.2,2.8-1.8,6-1.8,9.4c0,3.4,0.6,6.5,1.8,9.4
		c1.2,2.8,2.8,5.3,4.8,7.3c2,2,4.4,3.6,7,4.7c2.6,1.1,5.5,1.7,8.4,1.7C272,76.3,275,75.7,277.5,74.5z M277.5,60.5
		c-0.9,0.9-1.9,1.6-3,2.1c-2.4,1-5.4,1-7.7,0c-1.2-0.5-2.2-1.2-3-2.1c-0.9-0.9-1.5-1.9-2-3.2c-0.5-1.2-0.7-2.5-0.7-4
		c0-1.4,0.2-2.8,0.7-4c0.5-1.2,1.2-2.3,2-3.1c0.9-0.9,1.9-1.6,3.1-2.1c1.2-0.5,2.5-0.8,3.9-0.8c1.4,0,2.6,0.3,3.8,0.8
		c1.2,0.5,2.2,1.2,3.1,2.1c0.8,0.9,1.5,1.9,2,3.1c0.5,1.2,0.7,2.6,0.7,4c0,1.5-0.2,2.8-0.7,4C279,58.5,278.3,59.6,277.5,60.5z"/>
	<path class="st0" d="M314.7,75.6c0-1.4,1.5-2.3,2.8-1.7c0,0,0,0,0,0c2.5,1.1,5.3,1.6,8.5,1.6c2.9,0,5.7-0.5,8.3-1.6
		c2.6-1.1,5-2.6,7-4.6c2-2,3.6-4.4,4.8-7.1c1.2-2.8,1.8-5.9,1.8-9.2c0-3.3-0.6-6.4-1.8-9.2c-1.2-2.8-2.8-5.2-4.8-7.1
		c-2-2-4.3-3.5-7-4.6c-2.6-1.1-5.4-1.6-8.3-1.6c-3.2,0-6.1,0.6-8.6,1.7c-1,0.5-1.9,1-2.8,1.6v0c0-1.1-0.9-2-2-2h-10.5
		c-1.1,0-2,0.9-2,2v49.7c0,1.1,0.9,2,2,2h10.5c1.1,0,2-0.9,2-2V75.6z M324.2,43.2c1.3,0,2.6,0.3,3.8,0.7c1.2,0.5,2.2,1.2,3,2
		c0.8,0.8,1.5,1.9,2,3.1c0.5,1.2,0.7,2.5,0.7,3.9c0,1.4-0.2,2.8-0.7,3.9c-0.5,1.2-1.2,2.2-2,3.1c-0.8,0.9-1.9,1.6-3,2.1
		c-2.4,1-5.3,1-7.6,0c-1.2-0.5-2.2-1.2-3-2.1c-0.8-0.9-1.5-1.9-2-3.1c-0.5-1.2-0.7-2.5-0.7-3.9c0-1.4,0.2-2.7,0.7-3.9
		c0.5-1.2,1.1-2.2,2-3.1c0.9-0.9,1.9-1.5,3.1-2.1C321.6,43.4,322.9,43.2,324.2,43.2z"/>
	<path class="st0" d="M399.7,52.9c0-3.3-0.6-6.4-1.8-9.2c-1.2-2.8-2.8-5.2-4.8-7.1c-2-2-4.3-3.5-7-4.6c-2.6-1.1-5.4-1.6-8.3-1.6
		c-3.2,0-6.1,0.6-8.6,1.7c-1,0.5-1.9,1-2.8,1.6v0c0-1.1-0.9-2-2-2h-10.5c-1.1,0-2,0.9-2,2v49.7c0,1.1,0.9,2,2,2h10.5
		c1.1,0,2-0.9,2-2v-7.7c0-1.4,1.5-2.3,2.8-1.7c0,0,0,0,0,0c2.5,1.1,5.3,1.6,8.5,1.6c2.9,0,5.7-0.5,8.3-1.6c2.6-1.1,5-2.6,7-4.6
		c2-2,3.6-4.4,4.8-7.1C399.1,59.4,399.7,56.3,399.7,52.9z M376.1,43.2c1.3,0,2.6,0.3,3.8,0.7c1.2,0.5,2.2,1.2,3,2
		c0.8,0.8,1.5,1.9,2,3.1c0.5,1.2,0.7,2.5,0.7,3.9c0,1.4-0.2,2.8-0.7,3.9c-0.5,1.2-1.2,2.2-2,3.1c-0.8,0.9-1.9,1.6-3,2.1
		c-2.4,1-5.3,1-7.6,0c-1.2-0.5-2.2-1.2-3-2.1c-0.8-0.9-1.5-1.9-2-3.1c-0.5-1.2-0.7-2.5-0.7-3.9c0-1.4,0.2-2.7,0.7-3.9
		c0.5-1.2,1.1-2.2,2-3.1c0.9-0.9,1.9-1.5,3.1-2.1C373.5,43.4,374.8,43.2,376.1,43.2z"/>
	<path class="st0" d="M432.9,30.9l-8.7,22.8c-0.3,0.7-1.3,0.7-1.6,0l-8.9-22.8c-0.1-0.3-0.4-0.5-0.8-0.5h-14.3c-0.6,0-1,0.6-0.8,1.2
		L416.1,72c0.1,0.2,0.1,0.5,0,0.7c-0.3,0.6-0.6,1.2-0.9,1.8c-0.5,0.8-1.1,1.5-1.8,2c-0.7,0.6-1.7,1-2.8,1.3
		c-1.2,0.3-2.7,0.5-4.4,0.5c-0.4,0-1,0-1.6-0.1c-0.6,0-1.1-0.1-1.7-0.2l-1.2-0.2c-0.5-0.1-1,0.3-1,0.8v6.5c0,4.3,2.2,6.8,5.9,6.8
		h1.9c2.2,0,4.3-0.3,6.2-1c1.9-0.7,3.8-1.8,5.5-3.3c1.7-1.5,3.3-3.4,4.9-5.7c1.5-2.2,3.1-5,4.7-8.2l19.1-42.3
		c0.3-0.6-0.2-1.2-0.8-1.2h-14.4C433.4,30.3,433.1,30.6,432.9,30.9z"/>
	<path class="st0" d="M249.5,106.7c-2.7-2.4-5.8-4.2-9.4-5.5c-3.5-1.3-7.3-1.9-11.3-1.9c-4,0-7.8,0.7-11.3,1.9
		c-3.5,1.3-6.7,3.2-9.4,5.5c-2.7,2.4-4.8,5.3-6.4,8.7c-1.6,3.4-2.3,7.1-2.3,11.2c0,4.1,0.8,7.8,2.3,11.2c1.6,3.3,3.7,6.3,6.4,8.7
		c2.7,2.4,5.8,4.2,9.4,5.5c3.5,1.3,7.3,1.9,11.3,1.9c3.9,0,7.7-0.7,11.3-1.9c3.6-1.3,6.7-3.2,9.4-5.6c2.7-2.4,4.8-5.3,6.4-8.6
		c1.6-3.4,2.4-7.1,2.4-11.2c0-4.1-0.8-7.8-2.4-11.2C254.4,112,252.2,109.1,249.5,106.7z M243,126.5c0,2-0.4,3.9-1.1,5.6
		c-0.7,1.7-1.7,3.2-3,4.4c-1.3,1.2-2.8,2.2-4.5,2.9c-1.7,0.7-3.6,1.1-5.6,1.1c-2,0-3.9-0.4-5.6-1.1c-1.7-0.7-3.2-1.7-4.5-2.9
		c-1.3-1.3-2.3-2.8-3-4.5c-0.7-1.7-1.1-3.6-1.1-5.6c0-2,0.4-3.9,1.1-5.6c0.7-1.7,1.8-3.2,3-4.5c1.3-1.2,2.8-2.2,4.5-2.9
		c1.7-0.7,3.6-1.1,5.6-1.1c2,0,3.9,0.4,5.6,1.1c1.7,0.7,3.2,1.7,4.5,2.9c1.3,1.3,2.3,2.8,3,4.4C242.6,122.6,243,124.5,243,126.5z"/>
	<path class="st0" d="M278.7,112.2c-0.2,0.1-0.4,0.2-0.6,0.4c-0.7,0.4-1.5-0.1-1.5-0.9v0c0-0.6-0.5-1-1-1h-13.4
		c-0.5,0-0.9,0.4-0.9,0.9V153c0,0.5,0.4,0.9,0.9,0.9h13.6c0.5,0,0.9-0.4,0.9-0.9v-20.4c0-3,0.8-5.2,2.5-6.9c1.7-1.6,3.9-2.4,6.7-2.4
		h6.9c0.5,0,0.9-0.4,0.9-0.9v-11.4c0-0.5-0.4-0.9-0.9-0.9h-6.5C284,110.3,281.2,110.9,278.7,112.2z"/>
	<path class="st0" d="M413.2,112.2c-0.2,0.1-0.4,0.2-0.6,0.4c-0.7,0.4-1.5-0.1-1.5-0.9l0,0c0-0.6-0.5-1-1-1h-13.4
		c-0.5,0-0.9,0.4-0.9,0.9V153c0,0.5,0.4,0.9,0.9,0.9h13.6c0.5,0,0.9-0.4,0.9-0.9v-20.4c0-3,0.8-5.2,2.5-6.9c1.7-1.6,3.9-2.4,6.7-2.4
		h6.9c0.5,0,0.9-0.4,0.9-0.9v-11.4c0-0.5-0.4-0.9-0.9-0.9h-6.5C418.5,110.3,415.6,110.9,413.2,112.2z"/>
	<path class="st0" d="M327.4,108.2c0,1.4-1.5,2.3-2.7,1.7c0,0,0,0,0,0c-2.5-1.1-5.4-1.7-8.6-1.7c-2.9,0-5.7,0.6-8.3,1.7
		c-2.6,1.1-5,2.7-7,4.7c-2,2-3.6,4.5-4.8,7.3c-1.2,2.8-1.8,6-1.8,9.4c0,3.4,0.6,6.5,1.8,9.4c1.2,2.8,2.8,5.3,4.8,7.3
		c2,2,4.3,3.6,7,4.7c2.6,1.1,5.4,1.7,8.3,1.7c1.6,0,3.2-0.2,4.8-0.5c1.5-0.4,2.9-0.8,4.1-1.4c0.8-0.4,1.5-0.8,2.1-1.2
		c0.8,0.1,1.5,0.1,2.3,0.2c0,0,0,0,0,0c1.2,1,2.8,1.5,4.8,1.5h5.9c1.1,0,1.9-0.9,1.9-1.9v-50.1c0-1.1-0.9-1.9-1.9-1.9h-10.7
		c-1.1,0-1.9,0.9-1.9,1.9V108.2z M324.7,124c0.8,0.9,1.5,1.9,2,3.1c0.5,1.2,0.7,2.6,0.7,4c0,1.5-0.2,2.8-0.7,4
		c-0.5,1.2-1.2,2.3-2,3.2c-0.9,0.9-1.8,1.6-3,2.1c-2.4,1-5.3,1-7.6,0c-1.2-0.5-2.2-1.2-3-2.1c-0.8-0.9-1.5-1.9-2-3.1
		c-0.5-1.2-0.7-2.5-0.7-4c0-1.4,0.2-2.8,0.7-4c0.5-1.2,1.1-2.3,2-3.1c0.8-0.9,1.9-1.6,3-2.1c1.2-0.5,2.5-0.8,3.8-0.8
		c1.3,0,2.6,0.3,3.8,0.8C322.9,122.5,323.9,123.2,324.7,124z"/>
	<path class="st0" d="M385.4,115.7c-2.1-2-4.6-3.5-7.4-4.5c-2.8-1.1-5.9-1.6-9.1-1.6c-3.2,0-6.3,0.5-9.1,1.6
		c-2.8,1.1-5.3,2.6-7.4,4.5c-2.1,2-3.8,4.3-5,7.1c-1.2,2.7-1.8,5.8-1.8,9.1c0,3.4,0.6,6.4,1.9,9.2c1.2,2.7,2.9,5.1,5,7
		c2.1,1.9,4.6,3.5,7.4,4.5c2.8,1.1,5.9,1.6,9.1,1.6c2,0,4.1-0.2,6-0.7c2-0.5,3.8-1.1,5.5-1.9c1.7-0.8,3.3-1.8,4.8-3
		c1.5-1.2,2.8-2.6,3.8-4.1l0.3-0.4c0.3-0.5,0.3-1.1-0.1-1.6l-1-1.1c0,0-0.1-0.1-0.1-0.1c-0.5-0.8-1.1-1.5-1.7-2.1
		c-0.5-0.5-1.2-0.9-1.8-1.3c-1.4-0.7-3-0.8-5.2,0c-0.9,0.4-1.9,0.9-2.8,1.6c-1,0.7-2.2,1.3-3.5,1.7c-1.3,0.4-2.7,0.6-4.3,0.6
		c-2.3,0-4.2-0.6-5.8-1.9c-0.3-0.2-0.6-0.5-0.9-0.8c-0.8-0.8-0.2-2.1,0.9-2.1l27.9,0c0.7,0,1.3-0.6,1.3-1.3v-3.9
		c0-3.3-0.6-6.4-1.8-9.1C389.2,120,387.5,117.6,385.4,115.7z M364,125.9c-1.2,0-1.7-1.5-0.8-2.2c0,0,0.1,0,0.1-0.1
		c1.6-1.2,3.4-1.7,5.6-1.7c2.3,0,4.1,0.6,5.7,1.8c0,0,0,0,0,0c0.9,0.7,0.4,2.2-0.8,2.2H364z"/>
</g>
</svg>
