<svg xmlns="http://www.w3.org/2000/svg" width="448.98254pt" height="225pt" viewBox="0 0 448.98254 225"><path fill="#0d0f85" d="m432.11 63.838-8.439 24.107-9.242-24.107h-17.294l17.659 42.902-.047.093c-1.874 3.747-4.999 4.048-8.891 4.048-1.624 0-3.084-.246-3.624-.4l-.761-.216v14.013l.408.137c1.616.537 3.706.789 6.585.789 10.496 0 18.603-6.445 23.446-18.637l17.073-42.729zM208.029 87.612h18.16v20.34h17.185V53.457h-17.185v20.338h-18.16V53.456h-17.185v54.497h17.185zM322.903 76.646c4.753 0 8.07 3.804 8.07 9.25 0 5.442-3.317 9.246-8.07 9.246-4.75 0-8.069-3.804-8.069-9.247 0-5.445 3.32-9.25 8.07-9.25m24.582 9.25c0-13.484-8.723-22.898-21.216-22.898-4.07 0-7.705 1.27-10.595 3.698v-2.857h-16.341v54.496h16.341v-13.156c2.862 2.4 6.42 3.616 10.595 3.616 12.493 0 21.216-9.417 21.216-22.899" style="stroke-width:2.73905"/><path fill="#0d0f85" d="M375.122 76.646c4.752 0 8.07 3.804 8.07 9.25 0 5.442-3.318 9.246-8.07 9.246-4.75 0-8.07-3.804-8.07-9.247 0-5.445 3.32-9.25 8.07-9.25m3.367-13.648c-4.07 0-7.705 1.27-10.598 3.698v-2.857h-16.338v54.496h16.338v-13.156c2.865 2.402 6.423 3.616 10.598 3.616 12.492 0 21.216-9.417 21.216-22.899 0-13.484-8.724-22.898-21.216-22.898M271.174 95.1c-4.75 0-8.069-3.805-8.069-9.248 0-5.445 3.32-9.25 8.07-9.25 4.752 0 8.069 3.805 8.069 9.25 0 5.443-3.317 9.247-8.07 9.247m-3.366 13.652c4.177 0 7.735-1.216 10.597-3.616v2.77h16.342v-44.11h-16.342v2.857c-2.892-2.425-6.524-3.698-10.597-3.698-12.49 0-21.217 9.414-21.217 22.898 0 13.482 8.727 22.899 21.217 22.899M273.756 166.69c0 5.582-3.246 9.331-8.07 9.331-4.829 0-8.072-3.75-8.072-9.332 0-5.582 3.243-9.332 8.072-9.332 4.824 0 8.07 3.75 8.07 9.332m-8.07-23.32c-13.785 0-24.583 10.244-24.583 23.32 0 13.074 10.798 23.32 24.583 23.32 13.783 0 24.58-10.246 24.58-23.32 0-13.076-10.797-23.32-24.58-23.32M293.766 188.773h16.347V144.63h-16.347zM301.938 123.172c-5.29 0-9.434 4.144-9.434 9.43 0 5.38 4.057 9.44 9.434 9.44 5.38 0 9.436-4.06 9.436-9.44 0-5.376-4.057-9.43-9.436-9.43M342.93 143.79c-4.62 0-8.502 2.115-10.975 5.892l.24-5.048h-16.37v44.112h16.34v-25.002c0-4.106 2.074-6.554 5.55-6.554 3.681 0 5.88 2.574 5.88 6.888v24.668h16.345v-26.938c0-10.609-6.996-18.018-17.01-18.018M384.573 134.372h-16.177v10.277h-6.733v12.977h6.733v14.022c0 10.907 6.549 17.68 17.091 17.68 2.68 0 3.928-.183 6.492-.597l.504-.082v-13.903l-.682.096c-.523.076-1.427.164-2.778.164-2.788 0-4.45-1.696-4.45-4.536v-12.843h8.414v-12.978h-8.414zM208.029 148.07h6.976c4.007 0 6.807 2.868 6.807 6.976 0 4.109-2.8 6.977-6.807 6.977h-6.976zm8.658-13.819h-25.843v54.497h17.182l.003-12.907h8.658c12.816 0 22.48-8.94 22.48-20.795 0-11.854-9.664-20.795-22.48-20.795M6.646 30.406C17.887 55.23 42.851 72.511 71.874 72.511c29.023 0 53.987-17.28 65.23-42.105zM92.912 0c0 11.814-9.576 21.392-21.39 21.392-11.813 0-21.389-9.578-21.389-21.392zM71.914 167.893c-8.179 0-14.81-6.628-14.81-14.807 0-8.182 6.631-14.81 14.81-14.81s14.81 6.628 14.81 14.81c0 8.179-6.631 14.807-14.81 14.807m0-86.721C32.198 81.172 0 113.37 0 153.086S32.198 225 71.914 225s71.914-32.198 71.914-71.914-32.198-71.914-71.914-71.914" style="stroke-width:2.73905"/></svg>