<?xml version="1.0" encoding="utf-8"?>
<!-- Generator: Adobe Illustrator 27.4.1, SVG Export Plug-In . SVG Version: 6.00 Build 0)  -->
<svg version="1.1" id="레이어_1" xmlns="http://www.w3.org/2000/svg" xmlns:xlink="http://www.w3.org/1999/xlink" x="0px"
	 y="0px" viewBox="0 0 449 174.2" style="enable-background:new 0 0 449 174.2;" xml:space="preserve">
<style type="text/css">
	.st0{fill:#0D0F85;}
	.st1{fill:#00A61C;}
</style>
<g>
	<path class="st0" d="M-378.4,338.8l-8.4,24.1l-9.2-24.1h-17.3l17.7,42.9v0.1c-1.9,3.7-5,4-8.9,4c-1.6,0-3.1-0.2-3.6-0.4l-0.8-0.2
		v14l0.4,0.1c1.6,0.5,3.7,0.8,6.6,0.8c10.5,0,18.6-6.4,23.4-18.6l17.1-42.7L-378.4,338.8z M-602.5,362.6h18.2V383h17.2v-54.5h-17.2
		v20.3h-18.2v-20.3h-17.2V383h17.2V362.6z M-487.6,351.6c4.8,0,8.1,3.8,8.1,9.2c0,5.4-3.3,9.2-8.1,9.2c-4.8,0-8.1-3.8-8.1-9.2
		C-495.7,355.5-492.4,351.6-487.6,351.6 M-463,360.9c0-13.5-8.7-22.9-21.2-22.9c-4.1,0-7.7,1.3-10.6,3.7v-2.9h-16.3v54.5h16.3v-13.2
		c2.9,2.4,6.4,3.6,10.6,3.6C-471.8,383.8-463,374.4-463,360.9"/>
	<path class="st0" d="M-432,338c-4.1,0-7.7,1.3-10.6,3.7v-2.9H-459v54.5h16.3v-13.2c2.9,2.4,6.4,3.6,10.6,3.6
		c12.5,0,21.2-9.4,21.2-22.9C-410.8,347.4-419.6,338-432,338z M-435.4,370c-4.8,0-8.1-3.8-8.1-9.2c0-5.3,3.3-9.2,8.1-9.2
		c4.8,0,8.1,3.8,8.1,9.2C-427.3,366.2-430.6,370-435.4,370z"/>
	<path class="st0" d="M-532.1,338.9v2.9c-2.9-2.4-6.5-3.7-10.6-3.7c-12.5,0-21.2,9.4-21.2,22.9c0,13.3,8.7,22.8,21.2,22.8
		c4.2,0,7.7-1.2,10.6-3.6v2.8h16.3v-44.1H-532.1z M-539.4,370.1c-4.8,0-8.1-3.8-8.1-9.2s3.3-9.2,8.1-9.2s8.1,3.8,8.1,9.2
		C-531.3,366.3-534.6,370.1-539.4,370.1z"/>
</g>
<path class="st0" d="M-544.8,418.4c-13.8,0-24.6,10.2-24.6,23.3s10.8,23.3,24.6,23.3s24.6-10.2,24.6-23.3
	C-520.3,428.6-531.1,418.4-544.8,418.4z M-544.9,451c-4.8,0-8.1-3.8-8.1-9.3s3.2-9.3,8.1-9.3s8.1,3.7,8.1,9.3
	C-536.8,447.3-540,451-544.9,451z"/>
<g>
	<g>
		<path class="st1" d="M391.3,135.5c-5.4,0-10.6,0-15.7,0c-4.6,0-9.3,0.1-13.9,0.1c-0.3,0-0.7,0.1-1.1,0.1c0.1,1.8,1.1,3,2.4,3.9
			c3.1,2.1,8.2,1.7,11.2-0.5c1-0.7,2.3-1.3,3.5-1.3c3.6-0.2,7.2-0.2,10.8-0.3c1.6,0,1.9,1,1.5,2c-0.6,1.8-1.3,3.7-2.5,5.1
			c-4.1,4.9-9,8.3-15.6,9.2c-10.5,1.5-18.1-3-23.8-11c-4.7-6.6-3.7-18,1.4-24.3c6-7.4,13.8-9.7,23-8.4c3.5,0.5,6.6,1.7,9.5,3.5
			c4.2,2.5,6.7,6.2,8.3,10.8c1.1,3.1,1.7,6.2,1.4,9.5C391.5,134.6,391.3,135.3,391.3,135.5z M375.1,125.6c-4.7-4.4-10.7-4.2-13.2,0
			C366.1,125.6,370.4,125.6,375.1,125.6z"/>
		<path class="st1" d="M411.1,117.7c4.5-7,9.1-7,15.2-6.4c1.2,0.1,1.6,0.8,1.6,2c-0.1,4.1-0.1,8.2-0.2,12.4c0,0.4-0.1,0.9-0.1,1.3
			c-0.2,1.3-0.8,1.8-2.1,1.1c-5.4-2.8-14.1,0.3-14.2,9c-0.1,4.7,0,9.5,0,14.2c0,2.8-0.1,2.8-2.8,2.8c-3.6,0-7.2,0-10.8,0
			c-2.6,0-2.9-0.2-2.9-2.8c0-10.1,0-20.2,0.1-30.3c0-2.5,0-4.9,0-7.4c0-1.5,0.5-2.3,2.2-2.3c3.9,0,7.7-0.1,11.6,0
			c2.3,0,2.6,0.4,2.7,2.9C411.1,115.3,411.1,116.2,411.1,117.7z"/>
		<path class="st1" d="M276.3,116.4c1.1-1,2.2-2.2,3.6-3.2c1.3-0.9,2.7-1.8,4.2-2c2.3-0.3,4.7-0.1,7.1-0.1c1.1,0,1.8,0.5,1.8,1.8
			c0,4.9-0.1,9.8-0.1,14.8c0,0.2-0.2,0.5-0.1,0.4c-2.5-0.3-4.9-1-7.2-0.9c-5,0.1-8.2,3.2-8.4,8.2c-0.2,5.1,0,10.2,0,15.3
			c0,3.4-0.1,3.4-3.3,3.4c-3.2,0-6.3,0-9.5,0c-3.5,0-3.6-0.1-3.6-3.5c0-10.9,0-21.8,0-32.7c0-1.6,0-3.2,0-4.7c0-1.3,0.6-1.9,2-1.9
			c3.8,0,7.6-0.1,11.3,0.1c3.2,0.1,3.5,0.6,2.7,3.7C276.5,115.5,276.4,116.1,276.3,116.4z"/>
		<path class="st1" d="M315.1,154.1c4.1,0,7.7-1.3,10.6-3.7v2.9h16.4V98.8h-16.3V112c-2.9-2.4-6.4-3.6-10.6-3.6
			c-12.5,0-21.2,9.4-21.2,22.9C293.9,144.7,302.7,154.1,315.1,154.1z M318.5,122.1c4.8,0,8.1,3.8,8.1,9.2c0,5.3-3.3,9.2-8.1,9.2
			c-4.8,0-8.1-3.8-8.1-9.2C310.4,125.9,313.7,122.1,318.5,122.1z"/>
		<path class="st1" d="M228.4,99.4c-16.2,0-28.8,12-28.8,27.3s12.7,27.3,28.8,27.3s28.8-12,28.8-27.3
			C257.1,111.4,244.4,99.4,228.4,99.4z M228.4,138.8c-6.9,0-11.6-4.9-11.6-12.1c0-7.2,4.6-12.1,11.6-12.1s11.6,4.8,11.6,12.1
			C240,134,235.4,138.8,228.4,138.8z"/>
	</g>
	<g>
		<path class="st1" d="M432,30.9L423.6,55l-9.2-24.1h-17.3l17.7,42.9v0.1c-1.9,3.7-5,4-8.9,4c-1.6,0-3.1-0.2-3.6-0.4l-0.8-0.2v14
			l0.4,0.1c1.6,0.5,3.7,0.8,6.6,0.8c10.5,0,18.6-6.4,23.4-18.6L449,30.9L432,30.9z M207.9,54.7h18.2v20.4h17.2V20.6h-17.2v20.3
			h-18.2V20.6h-17.2v54.5h17.2V54.7z M322.8,43.7c4.8,0,8.1,3.8,8.1,9.2c0,5.4-3.3,9.2-8.1,9.2c-4.8,0-8.1-3.8-8.1-9.2
			C314.7,47.6,318,43.7,322.8,43.7 M347.4,53c0-13.5-8.7-22.9-21.2-22.9c-4.1,0-7.7,1.3-10.6,3.7v-2.9h-16.3v54.5h16.3V72.2
			c2.9,2.4,6.4,3.6,10.6,3.6C338.6,75.9,347.4,66.5,347.4,53"/>
		<path class="st1" d="M378.4,30.1c-4.1,0-7.7,1.3-10.6,3.7v-2.9h-16.4v54.5h16.3V72.2c2.9,2.4,6.4,3.6,10.6,3.6
			c12.5,0,21.2-9.4,21.2-22.9C399.6,39.5,390.8,30.1,378.4,30.1z M375,62.1c-4.8,0-8.1-3.8-8.1-9.2c0-5.3,3.3-9.2,8.1-9.2
			c4.8,0,8.1,3.8,8.1,9.2C383.1,58.3,379.8,62.1,375,62.1z"/>
		<path class="st1" d="M278.3,31v2.9c-2.9-2.4-6.5-3.7-10.6-3.7c-12.5,0-21.2,9.4-21.2,22.9c0,13.3,8.7,22.8,21.2,22.8
			c4.2,0,7.7-1.2,10.6-3.6v2.8h16.3V31H278.3z M271,62.2c-4.8,0-8.1-3.8-8.1-9.2s3.3-9.2,8.1-9.2s8.1,3.8,8.1,9.2
			C279.1,58.4,275.8,62.2,271,62.2z"/>
	</g>
</g>
<rect x="-516.8" y="419.7" class="st0" width="16.3" height="44.1"/>
<path class="st0" d="M-508.6,398.2c-5.3,0-9.4,4.1-9.4,9.4c0,5.4,4.1,9.4,9.4,9.4c5.4,0,9.4-4.1,9.4-9.4
	C-499.2,402.2-503.2,398.2-508.6,398.2"/>
<path class="st0" d="M-467.6,418.8c-4.6,0-8.5,2.1-11,5.9l0.2-5h-16.4v44.1h16.3v-25c0-4.1,2.1-6.6,5.5-6.6c3.7,0,5.9,2.6,5.9,6.9
	v24.7h16.3v-26.9C-450.6,426.2-457.6,418.8-467.6,418.8"/>
<path class="st0" d="M-426,409.4h-16.2v10.3h-6.7v13h6.7v14c0,10.9,6.5,17.7,17.1,17.7c2.7,0,3.9-0.2,6.5-0.6l0.5-0.1v-13.9
	l-0.7,0.1c-0.5,0.1-1.4,0.2-2.8,0.2c-2.8,0-4.5-1.7-4.5-4.5v-12.8h8.4v-13h-8.4L-426,409.4z"/>
<path class="st0" d="M-602.5,423.1h7c4,0,6.8,2.9,6.8,7s-2.8,7-6.8,7h-7V423.1z"/>
<path class="st0" d="M-593.8,409.3h-25.8v54.5h17.2v-12.9h8.7c12.8,0,22.5-8.9,22.5-20.8C-571.4,418.2-581,409.3-593.8,409.3"/>
<path class="st0" d="M-803.9,305.4c11.2,24.8,36.2,42.1,65.2,42.1s54-17.3,65.2-42.1H-803.9z"/>
<path class="st0" d="M-717.6,275c0,11.8-9.6,21.4-21.4,21.4c-11.8,0-21.4-9.6-21.4-21.4H-717.6z"/>
<path class="st0" d="M-738.6,442.9c-8.2,0-14.8-6.6-14.8-14.8c0-8.2,6.6-14.8,14.8-14.8s14.8,6.6,14.8,14.8
	S-730.4,442.9-738.6,442.9"/>
<path class="st0" d="M-738.6,356.2c-39.7,0-71.9,32.2-71.9,71.9s32.2,71.9,71.9,71.9s71.9-32.2,71.9-71.9S-698.9,356.2-738.6,356.2"
	/>
<g>
	<path class="st1" d="M78.1,87.9c-13.7,0-27.4,0.1-41.1,0c-10.5-0.1-19.2-4.4-26.2-12c-4-4.3-6.3-9.8-8.1-15.3
		C-0.7,50-0.9,39.2,2.3,28.5c1.7-5.9,4.3-11.4,8.4-15.9C16.2,6.7,22.4,2.3,30.8,1.2c5.3-0.7,10.6-0.9,16-0.9c23.5,0,46.9-0.1,70.4,0
		c8.1,0.1,15.9,1.9,22.5,6.9c5.3,4,9.5,9,11.8,15.5c2.6,7.3,4.3,14.8,4,22.6c-0.2,6.8-1.6,13.4-4.1,19.7
		c-4.5,11.5-12.9,18.8-24.7,22.1c-2.7,0.8-5.7,0.8-8.6,0.8C104.8,88,91.4,87.9,78.1,87.9z M77.8,53.2L77.8,53.2
		c8.7,0,17.4,0.1,26.1-0.1c1.9,0,4.1-0.4,5.7-1.4c3.4-2,4.7-6.9,3.3-11c-1-3-3.7-6.1-8.6-6c-9,0.2-17.9,0.1-26.9,0.1
		c-8.7,0-17.4,0-26.1,0c-2.1,0-4.2,0-6,1.5c-3.1,2.8-4.3,7.1-2.9,10.7c1.7,4.6,4.1,6.2,9.2,6.2C60.4,53.2,69.1,53.2,77.8,53.2z"/>
	<path class="st1" d="M78.2,174.4c-21.8,0-42.9,0-64.7,0c-1,0-2.6-0.2-3.5-0.3c-5.7-0.7-9.1-4.5-9.2-10.3c-0.1-6.7-0.1-13.4,0-20
		c0.1-6.4,5-10.8,10.9-10.6c11,0.2,22,0.1,32.9,0.1c1.9,0,3.9,0.1,5.5-1.4s2.5-3.1,2.4-5.3c0-5,0-10,0-15c0-1.1,0-2.1,0.1-3.2
		c0.4-3.8,2.6-5.9,6.5-5.9c12.1,0,24.2,0,36.4,0c5.1,0,8.5,2.9,8.4,8.6c-0.1,5.3,0.3,10.5,0.2,15.8c0,4.6,2.3,6.4,6.4,6.4
		c10.9-0.1,21.8,0,32.7,0c2.5,0,4.8,0.2,7,1.8c2.7,1.9,4.1,4.5,4.1,7.6c0,8.1,0,16.1-0.4,24.2c-0.2,4.6-3.4,7.2-8.2,7.6
		c-0.8,0.1-1.6,0-2.4,0C121.6,174.4,99.9,174.4,78.2,174.4C78.2,174.4,78.2,174.5,78.2,174.4z"/>
</g>
<path class="st1" d="M238.5-102.4c-5.3,0-10.3,0-15.8,0c0,1.3,0,2.4,0,3.5c0,4.4,0,8.8,0.1,13.2c0,1.3-0.1,2.5-1.9,2.4
	c-4.7,0-9.3,0-14,0c-0.1,0-0.2,0-0.3-0.1s-0.1-0.2-0.1-0.4c0.1-8.4,0-16.9,0-25.4c0-8.3,0-16.5-0.2-24.8c0-0.4,0-0.7,0.2-1
	c0.8-1.5,3.4-0.9,4.7-0.8c3,0.2,5.9,0.2,8.9,0.3c3.2,0.1,3,4.1,2.9,6.4c-0.1,1.4-0.3,12.6-0.2,12.6c5.2,0,10.4,0,15.8,0
	c0.1-0.6,0.2-1.3,0.2-1.9c0-4.7-0.1-9.5-0.1-14.2c0-2.5,0.2-2.6,2.6-2.7c4.4,0,8.9-0.4,13.3,0c0.4,0,0.8,0.1,1.1,0.4
	c0.4,0.3,0.4,0.9,0.4,1.4c0.5,11.3,0.3,22.6,0.4,33.8c0,4.7-0.1,9.3-0.1,14c0,2.1-0.5,2.6-2.5,2.6c-4.4,0-8.8,0-13.2,0
	c-0.4,0-0.9,0-1.3-0.2c-1.1-0.5-0.8-2.4-0.8-3.4c0-4.1,0.1-8.3,0.1-12.4C238.7-100.3,238.6-101.2,238.5-102.4z"/>
<path class="st1" d="M309.8-125.6c0.3-0.2,0.7-0.2,1-0.2c3.3,0,6.6,0.2,9.9,0c2-0.1,4.3-0.9,4.5,2.6c0.9-0.5,1.4-0.8,1.9-1.1
	c6.7-4.2,15.1-3.5,21.7,2.8c2.4,2.3,3.9,5.1,5.2,8.1c4.1,9.8,0.7,24.2-9.2,29.3c-3.1,1.6-6.7,2.2-10.1,1.8c-1.2-0.1-9-1.9-9-2.6
	c0,2.1,0,4.3,0,6.4c0,1.6,0.4,3.2,0.1,4.9c0,0.2-0.1,0.4-0.3,0.6c-0.1,0.1-0.3,0.1-0.5,0.1c-4.5,0.6-9,0.1-13.6,0.2
	c-1.8,0-2.3-0.7-2.3-2.4c0.1-11.9,0.1-23.9,0.2-35.8c0-3.5-0.1-7-0.1-10.5C309.4-122.2,309.1-125.1,309.8-125.6z M339.8-104.5
	c0.3-3.3-0.6-6.1-3.6-7.4c-2.7-1.2-5.5-0.9-7.9,1.1c-0.5,0.4-1.1,1-1.3,1.6c-0.8,2.9-1.1,5.9,0,8.8c1.8,4.5,6.9,5.6,10.5,2.3
	C339.3-99.9,340-102.1,339.8-104.5z"/>
<path class="st1" d="M374.7-97.9c0.4,0.2,0,5.5,0,6.1c0,2,0.1,4.1-0.1,6.1h-16.2c-0.1-0.8-0.2-1.6-0.2-2.3c0-12.7,0.1-25.5,0.1-38.2
	c0-3.4,0.1-6.8,0.2-10.3c0-1.8,0.7-2.4,2.6-2.2c3.1,0.3,6.1,0.1,9.2,0.2c1.7,0,3.7-0.3,4.2,2c0.5-0.2,0.8-0.2,1-0.4
	c3.6-3.1,8-3,12.3-2.5c3.6,0.4,6.5,2.5,9.2,4.8c9.8,8.8,9.3,24.2,1.9,32.9c-5.8,6.9-14,8.7-22.4,4.7
	C376.1-97.2,375.6-97.4,374.7-97.9z M389-116.4c-0.6-3.5-0.5-6.4-3.4-8c-2.6-1.5-6.5-0.7-8.6,1.4c-2.6,2.6-2.5,5.8-1.6,8.8
	c0.8,2.5,2.7,4.6,5.4,5.3c2.6,0.7,4.7-0.7,6.1-2.7C388.1-113.1,388.5-115.2,389-116.4z"/>
<path class="st1" d="M288.8-123.9c0.5-2.4,2.3-2.4,4.4-2.2c3.1,0.2,6.3,0.3,9.5,0.3c2.2,0,2.4,0.1,2.4,2.4c0.1,4.6,0,9.1,0,13.7
	c0,7.9,0,15.8,0,23.7c0,2.6-0.1,2.7-2.6,2.7c-3.1,0-6.1,0-9.2,0c-0.4,0-1,0.1-1.3-0.1c-3.4-1.8-6.4-0.1-9.6,0.7
	c-6.2,1.7-11.9,0.1-16.2-4.3c-9.7-9.6-9.1-24.9,0-34.7c4.6-4.9,10.3-6.2,16.6-5C284.8-126.2,286.6-124.9,288.8-123.9z M288.7-104.7
	c0.2-5.2-4.9-9.5-10-7.2c-3.4,1.6-4.1,6.1-3.5,9.5c0.4,2.4,2,4.8,4.3,5.7C284.6-94.9,288.5-100,288.7-104.7
	C288.7-104.6,288.7-104.7,288.7-104.7z"/>
<path class="st1" d="M410.4-70.4c0-0.2,0.1-0.4,0.2-0.6c0.9-2,1.7-3.9,2.6-5.9c0.5-1,0.9-2.1,1.4-3.1c0.4-0.8,1.5-2.3,1.5-3.1
	c1.2-2.4,1.3-4.4,0.1-6.9c-2.6-5.6-4.8-11.5-7.3-17.2c-2.6-6.1-6.1-11.6-7.5-18.2c-0.3-1.5,4.8-0.8,5.8-0.8c2.6,0,5.3,0.1,7.9,0.1
	c1.5,0,2.7,0.3,3.4,1.9c2.2,5.6,4.5,11.1,6.8,17c0.9-2,1.7-4,2.5-6c1.5-3.8,2.9-7.5,4.3-11.3c0.5-1.3,1.2-1.7,2.6-1.7
	c4,0.2,8.1,0.2,12.1,0.4c2.1,0.1,2.3,0.4,1.9,2.4c-0.1,0.5-0.3,1-0.5,1.5c-3.3,7.8-6.5,15.7-9.8,23.5c-2.3,5.5-4.4,11.1-6.6,16.6
	c-1.4,3.4-2.8,6.9-4.3,10.3c-0.2,0.4-0.4,0.9-0.7,1.3c-1.2,1.4-5.2,0.7-6.9,0.7c-2.7,0-5.5,0-8.2,0c-0.6,0-1.4-0.1-1.4-0.7
	C410.4-70.3,410.4-70.3,410.4-70.4z"/>
<g>
	<path class="st1" d="M-732.5,87.7c-13.7,0-27.4,0.1-41.1,0c-10.5-0.1-19.2-4.4-26.2-12c-4-4.3-6.3-9.8-8.1-15.3
		c-3.4-10.6-3.6-21.4-0.4-32.1c1.7-5.9,4.3-11.4,8.4-15.9c5.4-5.9,11.7-10.3,20.1-11.4c5.3-0.7,10.6-0.9,16-0.9
		c23.5,0,46.9-0.1,70.4,0c8.1,0.1,15.9,1.9,22.5,6.9c5.3,4,9.5,9,11.8,15.5c2.6,7.3,4.3,14.8,4,22.6c-0.2,6.8-1.6,13.4-4.1,19.7
		c-4.5,11.5-12.9,18.8-24.7,22.1c-2.7,0.8-5.7,0.8-8.6,0.8C-705.8,87.8-719.1,87.7-732.5,87.7z M-732.7,53L-732.7,53
		c8.7,0,17.4,0.1,26.1-0.1c1.9,0,4.1-0.4,5.7-1.4c3.4-2,4.7-6.9,3.3-11c-1-3-3.7-6.1-8.6-6c-9,0.2-17.9,0.1-26.9,0.1
		c-8.7,0-17.4,0-26.1,0c-2.1,0-4.2,0-6,1.5c-3.1,2.8-4.3,7.1-2.9,10.7c1.7,4.6,4.1,6.2,9.2,6.2C-750.1,53-741.4,53-732.7,53z"/>
	<path class="st1" d="M-732.3,174.2c-21.8,0-42.9,0-64.7,0c-1,0-2.6-0.2-3.5-0.3c-5.7-0.7-9.1-4.5-9.2-10.3c-0.1-6.7-0.1-13.4,0-20
		c0.1-6.4,5-10.8,10.9-10.6c11,0.2,22,0.1,32.9,0.1c1.9,0,3.9,0.1,5.5-1.4s2.5-3.1,2.4-5.3c0-5,0-10,0-15c0-1.1,0-2.1,0.1-3.2
		c0.4-3.8,2.6-5.9,6.5-5.9c12.1,0,24.2,0,36.4,0c5.1,0,8.5,2.9,8.4,8.6c-0.1,5.3,0.3,10.5,0.2,15.8c0,4.6,2.3,6.4,6.4,6.4
		c10.9-0.1,21.8,0,32.7,0c2.5,0,4.8,0.2,7,1.8c2.7,1.9,4.1,4.5,4.1,7.6c0,8.1,0,16.1-0.4,24.2c-0.2,4.6-3.4,7.2-8.2,7.6
		c-0.8,0.1-1.6,0-2.4,0C-688.9,174.2-710.6,174.2-732.3,174.2C-732.3,174.2-732.3,174.3-732.3,174.2z"/>
	<path class="st1" d="M-572,54.4c-5.3,0-10.3,0-15.8,0c0,1.3,0,2.4,0,3.5c0,4.4,0,8.8,0.1,13.2c0,1.3-0.1,2.5-1.9,2.4
		c-4.7,0-9.5,0-14.4,0c0-17.4,0-34.5,0-51.8c0.4-0.1,0.9-0.4,1.4-0.4c4,0,7.9-0.1,11.9,0c2.6,0,3,0.4,3,3.1c0,5.3,0,10.5,0,15.9
		c5.2,0,10.4,0,15.8,0c0.1-0.6,0.2-1.3,0.2-1.9c0-4.7-0.1-9.5-0.1-14.2c0-2.5,0.2-2.6,2.6-2.7c4,0,7.9-0.2,11.9-0.1
		c2.9,0,3,0.4,3.1,3.2c0.1,10.8,0.2,21.6,0.3,32.4c0,4.7-0.1,9.3-0.1,14c0,2.4-0.2,2.6-2.5,2.6c-4,0-7.9,0-11.9,0
		c-3.4,0-3.5-0.1-3.5-3.6c0-4.1,0.1-8.3,0.1-12.4C-571.8,56.5-571.9,55.6-572,54.4z"/>
	<path class="st1" d="M-553.4,126.7c-0.6,11.2-6,19.3-16,24.3c-5.5,2.8-11.5,2.8-17.5,2c-7.2-1.1-12.8-5-17.1-10.8
		c-1.6-2.1-3.1-4.4-4-6.8c-3.3-9.5-2.1-18.1,4.7-26.2c4.4-5.2,9.6-8.2,15.8-9.6c3.5-0.8,7.4-0.9,10.9-0.3c9.5,1.8,16.7,6.9,20.7,16
		C-554.1,119-553.3,122.7-553.4,126.7z M-593.5,125.9c-0.3,7.1,5.2,12.6,11.5,12.7c6.8,0.1,12.5-4.7,12.5-12.5
		c0-7.1-5.3-12.6-12.3-12.6C-588.2,113.5-593.5,119.1-593.5,125.9z"/>
	<path class="st1" d="M-500.8,31.1c2.3,0,4.2,0,6.1,0c1.7,0,3.3,0,5-0.1c2-0.1,4.3-0.9,4.5,2.6c0.9-0.5,1.4-0.8,1.9-1.1
		c6.7-4.2,15.1-3.5,21.7,2.8c2.4,2.3,3.9,5.1,5.2,8.1c3.5,8.4,1.5,16-2.6,23.4c-1.5,2.7-3.7,4.9-6.8,5.9c-2.3,0.8-4.7,1.5-7,2.2
		c-0.6,0.2-1.4,0.2-2.1,0c-3.2-0.9-6.3-1.9-9.7-3c0,3.7,0,7.7,0,11.8c-0.7,0.2-1.2,0.3-1.6,0.3c-4.2,0-8.4,0-12.6,0
		c-1.8,0-2.3-0.7-2.3-2.4c0.1-11.9,0.1-23.9,0.2-35.8c0-3.5-0.1-7-0.1-10.5C-501.2,34.1-501,32.8-500.8,31.1z M-470.8,52.3
		c0.3-3.3-0.6-6.1-3.6-7.4c-2.7-1.2-5.5-0.9-7.9,1.1c-0.5,0.4-1.1,1-1.3,1.6c-0.8,2.9-1.1,5.9,0,8.8c1.8,4.5,6.9,5.6,10.5,2.3
		C-471.2,56.9-470.5,54.7-470.8,52.3z"/>
	<path class="st1" d="M-435.8,71.6c0,4.3,0,8.1,0,12.2c-5.4,0-10.7,0-16.2,0c-0.1-0.8-0.2-1.6-0.2-2.3c0-12.7,0.1-25.5,0.1-38.2
		c0-3.4,0.1-6.8,0.2-10.3c0-1.8,0.7-2.4,2.6-2.2c3.1,0.3,6.1,0.1,9.2,0.2c1.7,0,3.7-0.3,4.2,2c0.5-0.2,0.8-0.2,1-0.4
		c3.6-3.1,8-3,12.3-2.5c3.6,0.4,6.5,2.5,9.1,4.8c9.8,8.8,9.3,24.2,1.9,32.9c-5.8,6.9-14,8.7-22.4,4.7
		C-434.4,72.3-434.9,72.1-435.8,71.6z M-421.5,53.1c-0.6-3.5-0.5-6.4-3.4-8c-2.6-1.5-6.5-0.7-8.6,1.4c-2.6,2.6-2.5,5.8-1.6,8.8
		c0.8,2.5,2.7,4.6,5.4,5.3c2.6,0.7,4.7-0.7,6.1-2.7C-422.5,56.4-422,54.3-421.5,53.1z"/>
	<path class="st1" d="M-485,112.5c0-3.5,0.1-6.5,0-9.4c0-1.6,0.4-2.4,2.2-2.4c4,0.1,8.1,0.1,12.1,0c1.8,0,2.2,0.7,2.2,2.4
		c0,15.5,0,31.1,0.1,46.6c0,2.7-0.1,2.9-2.8,2.9c-3.7,0-7.4-0.1-11.1,0.1c-1.9,0.1-2.8-0.5-2.8-2.4c-1.8,0.9-3.4,1.9-5.1,2.5
		s-3.6,1.1-5.4,1c-2.3-0.1-4.7-0.7-6.8-1.5c-3.7-1.4-6.6-4-8.7-7.4c-5.1-8.2-5.8-16.5-1-25.4c2.8-5.3,6.6-8.9,12.4-10
		C-494.7,108.6-489.8,109-485,112.5z M-485.6,131.1c0-0.6,0.1-1.2,0-1.8c-0.3-2.7-2.4-5.4-4.8-6c-2.9-0.7-5.5-0.4-7.5,2.3
		c-1.9,2.5-2.2,8.1-0.4,10.7c2.5,3.7,6.8,4.2,10.2,1.4C-485.9,136-485.5,133.7-485.6,131.1z"/>
	<path class="st1" d="M-521.7,32.9c0.5-2.4,2.3-2.4,4.4-2.2c3.1,0.2,6.3,0.3,9.5,0.3c2.2,0,2.4,0.1,2.4,2.4c0.1,4.6,0,9.1,0,13.7
		c0,7.9,0,15.8,0,23.7c0,2.6-0.1,2.7-2.6,2.7c-3.1,0-6.1,0-9.2,0c-0.4,0-1,0.1-1.3-0.1c-3.4-1.8-6.4-0.1-9.6,0.7
		c-6.2,1.7-11.9,0.1-16.2-4.3c-9.7-9.6-9.1-24.9,0-34.7c4.6-4.9,10.3-6.2,16.6-5C-525.8,30.6-524,31.9-521.7,32.9z M-521.8,52.1
		c0.3-2.3-0.6-4.2-2.2-5.9c-3-3.1-9.4-2.3-10.7,1.5c-0.9,2.7-1.1,5.5-0.1,8.2c1.7,4.8,7.1,6,10.6,2.4
		C-522.5,56.6-521.6,54.6-521.8,52.1z"/>
	<path class="st1" d="M-419.3,134.8c-5.4,0-10.6,0-15.7,0c-4.6,0-9.3,0.1-13.9,0.1c-0.3,0-0.7,0.1-1.1,0.1c0.1,1.8,1.1,3,2.4,3.9
		c3.1,2.1,8.2,1.7,11.2-0.5c1-0.7,2.3-1.3,3.5-1.3c3.6-0.2,7.2-0.2,10.8-0.3c1.6,0,1.9,1,1.5,2c-0.6,1.8-1.3,3.7-2.5,5.1
		c-4.1,4.9-9,8.3-15.6,9.2c-10.5,1.5-18.1-3-23.8-11c-4.7-6.6-3.7-18,1.4-24.3c6-7.4,13.8-9.7,23-8.4c3.5,0.5,6.6,1.7,9.5,3.5
		c4.2,2.5,6.7,6.2,8.3,10.8c1.1,3.1,1.7,6.2,1.4,9.5C-419,133.9-419.2,134.6-419.3,134.8z M-435.5,124.9c-4.7-4.4-10.7-4.2-13.2,0
		C-444.4,124.9-440.2,124.9-435.5,124.9z"/>
	<path class="st1" d="M-400.2,86.4c1.9-4.2,3.6-8.5,5.7-12.6c1.2-2.4,1.3-4.4,0.1-6.9c-2.6-5.6-4.8-11.5-7.3-17.2
		c-1.8-4.1-3.7-8.1-5.5-12.2c-0.9-2-2.1-4-1.9-6.8c1,0,1.9,0,2.7,0c3.7,0,7.4,0.1,11,0.1c1.5,0,2.7,0.3,3.4,1.9
		c2.2,5.6,4.5,11.1,6.8,17c0.9-2,1.7-4,2.5-6c1.5-3.8,2.9-7.5,4.3-11.3c0.5-1.3,1.2-1.7,2.6-1.7c4,0.2,8.1,0.2,12.1,0.4
		c2.1,0.1,2.3,0.4,1.9,2.4c-0.1,0.5-0.3,1-0.5,1.5c-3.3,7.8-6.5,15.7-9.8,23.5c-2.3,5.5-4.4,11.1-6.6,16.6
		c-1.4,3.6-2.9,7.1-4.5,10.7c-0.3,0.6-1.1,1.4-1.6,1.5c-5,0.1-10,0.1-15,0.1C-399.8,87-400,86.7-400.2,86.4z"/>
	<path class="st1" d="M-399.4,116.1c4.5-7,9.1-7,15.2-6.4c1.2,0.1,1.6,0.8,1.6,2c-0.1,4.1-0.1,8.2-0.2,12.4c0,0.4-0.1,0.9-0.1,1.3
		c-0.2,1.3-0.8,1.8-2.1,1.1c-5.4-2.8-14.1,0.3-14.2,9c-0.1,4.7,0,9.5,0,14.2c0,2.8-0.1,2.8-2.8,2.8c-3.6,0-7.2,0-10.8,0
		c-2.6,0-2.9-0.2-2.9-2.8c0-10.1,0-20.2,0.1-30.3c0-2.5,0-4.9,0-7.4c0-1.5,0.5-2.3,2.2-2.3c3.9,0,7.7-0.1,11.6,0
		c2.3,0,2.6,0.4,2.7,2.9C-399.4,113.7-399.4,114.6-399.4,116.1z"/>
	<path class="st1" d="M-534.2,115c1.1-1,2.2-2.2,3.6-3.2c1.3-0.9,2.7-1.8,4.2-2c2.3-0.3,4.7-0.1,7.1-0.1c1.1,0,1.8,0.5,1.8,1.8
		c0,4.9-0.1,9.8-0.1,14.8c0,0.2-0.2,0.5-0.1,0.4c-2.5-0.3-4.9-1-7.2-0.9c-5,0.1-8.2,3.2-8.4,8.2c-0.2,5.1,0,10.2,0,15.3
		c0,3.4-0.1,3.4-3.3,3.4s-6.3,0-9.5,0c-3.5,0-3.6-0.1-3.6-3.5c0-10.9,0-21.8,0-32.7c0-1.6,0-3.2,0-4.7c0-1.3,0.6-1.9,2-1.9
		c3.8,0,7.6-0.1,11.3,0.1c3.2,0.1,3.5,0.6,2.7,3.7C-534,114.1-534.1,114.7-534.2,115z"/>
</g>
</svg>
